<svg xmlns="http://www.w3.org/2000/svg" version="1.1" xmlns:xlink="http://www.w3.org/1999/xlink" viewBox="0 0 200 200"><rect width="200" height="200" fill="url('#gradient')"></rect><defs><linearGradient id="gradient" gradientTransform="rotate(45 0.5 0.5)"><stop offset="0%" stop-color="#000000"></stop><stop offset="100%" stop-color="#000000"></stop></linearGradient></defs><g><g fill="#211e23" transform="matrix(1.6089385474860336,0,0,1.6089385474860336,8.916659204986509,108.79964343662368)" stroke="#ffffff" stroke-width="0.2"><path d="M9.17-4.81L12.58-4.81Q12.51-3.33 11.78-2.19Q11.04-1.05 9.72-0.43Q8.40 0.20 6.70 0.20L6.70 0.20Q3.90 0.20 2.29-1.63Q0.67-3.46 0.67-6.79L0.67-6.79L0.67-7.49Q0.67-9.58 1.40-11.15Q2.13-12.71 3.50-13.57Q4.86-14.42 6.66-14.42L6.66-14.42Q9.25-14.42 10.82-13.06Q12.39-11.70 12.61-9.31L12.61-9.31L9.19-9.31Q9.15-10.61 8.54-11.17Q7.92-11.74 6.66-11.74L6.66-11.74Q5.38-11.74 4.79-10.78Q4.19-9.82 4.16-7.72L4.16-7.72L4.16-6.72Q4.16-4.44 4.73-3.47Q5.30-2.49 6.70-2.49L6.70-2.49Q7.88-2.49 8.51-3.05Q9.13-3.60 9.17-4.81L9.17-4.81ZM17.52-15L17.52 0L14.22 0L14.22-15L17.52-15ZM19.14-4.82L19.13-5.38Q19.13-6.96 19.75-8.20Q20.36-9.43 21.51-10.10Q22.67-10.76 24.22-10.76L24.22-10.76Q26.59-10.76 27.96-9.29Q29.33-7.82 29.33-5.29L29.33-5.29L29.33-5.18Q29.33-2.71 27.95-1.25Q26.58 0.20 24.24 0.20L24.24 0.20Q21.98 0.20 20.62-1.16Q19.25-2.51 19.14-4.82L19.14-4.82ZM22.43-5.77L22.42-5.18Q22.42-3.71 22.88-3.03Q23.34-2.34 24.24-2.34L24.24-2.34Q26.00-2.34 26.04-5.05L26.04-5.05L26.04-5.38Q26.04-8.22 24.22-8.22L24.22-8.22Q22.57-8.22 22.43-5.77L22.43-5.77ZM30.71-10.57L33.80-10.57L33.91-9.33Q35-10.76 36.92-10.76L36.92-10.76Q38.57-10.76 39.39-9.78Q40.21-8.79 40.23-6.81L40.23-6.81L40.23 0L36.93 0L36.93-6.67Q36.93-7.47 36.61-7.85Q36.29-8.22 35.44-8.22L35.44-8.22Q34.47-8.22 34.00-7.46L34.00-7.46L34.00 0L30.71 0L30.71-10.57ZM47.17 0.20L47.17 0.20Q44.74 0.20 43.23-1.25Q41.73-2.71 41.73-5.03L41.73-5.03L41.73-5.30Q41.73-6.92 42.33-8.16Q42.93-9.40 44.08-10.08Q45.23-10.76 46.82-10.76L46.82-10.76Q49.04-10.76 50.33-9.38Q51.62-8.00 51.62-5.53L51.62-5.53L51.62-4.25L45.08-4.25Q45.25-3.36 45.85-2.85Q46.45-2.34 47.39-2.34L47.39-2.34Q48.96-2.34 49.83-3.44L49.83-3.44L51.34-1.66Q50.72-0.81 49.59-0.31Q48.47 0.20 47.17 0.20ZM46.80-8.22L46.80-8.22Q45.35-8.22 45.08-6.31L45.08-6.31L48.40-6.31L48.40-6.56Q48.42-7.35 48.00-7.79Q47.58-8.22 46.80-8.22ZM67.73-5.36L67.73-5.21Q67.73-2.74 66.63-1.27Q65.52 0.20 63.63 0.20L63.63 0.20Q62.18 0.20 61.24-0.87L61.24-0.87L61.24 4.06L57.95 4.06L57.95-10.57L61.03-10.57L61.12-9.59Q62.07-10.76 63.61-10.76L63.61-10.76Q65.57-10.76 66.65-9.32Q67.73-7.88 67.73-5.36L67.73-5.36ZM64.44-5.06L64.44-5.41Q64.44-8.22 62.80-8.22L62.80-8.22Q61.63-8.22 61.24-7.38L61.24-7.38L61.24-3.22Q61.67-2.34 62.82-2.34L62.82-2.34Q64.39-2.34 64.44-5.06L64.44-5.06ZM72.40-15L72.40-9.43Q73.46-10.76 75.10-10.76L75.10-10.76Q76.85-10.76 77.73-9.73Q78.62-8.69 78.64-6.67L78.64-6.67L78.64 0L75.34 0L75.34-6.59Q75.34-7.43 75-7.83Q74.66-8.22 73.84-8.22L73.84-8.22Q72.82-8.22 72.40-7.58L72.40-7.58L72.40 0L69.11 0L69.11-15L72.40-15ZM80.07-4.82L80.06-5.38Q80.06-6.96 80.67-8.20Q81.29-9.43 82.44-10.10Q83.59-10.76 85.15-10.76L85.15-10.76Q87.52-10.76 88.89-9.29Q90.25-7.82 90.25-5.29L90.25-5.29L90.25-5.18Q90.25-2.71 88.88-1.25Q87.51 0.20 85.17 0.20L85.17 0.20Q82.91 0.20 81.54-1.16Q80.18-2.51 80.07-4.82L80.07-4.82ZM83.36-5.77L83.35-5.18Q83.35-3.71 83.81-3.03Q84.27-2.34 85.17-2.34L85.17-2.34Q86.92-2.34 86.96-5.05L86.96-5.05L86.96-5.38Q86.96-8.22 85.15-8.22L85.15-8.22Q83.50-8.22 83.36-5.77L83.36-5.77ZM91.64-10.57L94.73-10.57L94.83-9.33Q95.93-10.76 97.85-10.76L97.85-10.76Q99.50-10.76 100.32-9.78Q101.13-8.79 101.16-6.81L101.16-6.81L101.16 0L97.86 0L97.86-6.67Q97.86-7.47 97.54-7.85Q97.22-8.22 96.37-8.22L96.37-8.22Q95.40-8.22 94.93-7.46L94.93-7.46L94.93 0L91.64 0L91.64-10.57ZM108.10 0.20L108.10 0.20Q105.66 0.20 104.16-1.25Q102.66-2.71 102.66-5.03L102.66-5.03L102.66-5.30Q102.66-6.92 103.26-8.16Q103.86-9.40 105.01-10.08Q106.16-10.76 107.74-10.76L107.74-10.76Q109.97-10.76 111.26-9.38Q112.55-8.00 112.55-5.53L112.55-5.53L112.55-4.25L106.01-4.25Q106.18-3.36 106.78-2.85Q107.37-2.34 108.32-2.34L108.32-2.34Q109.88-2.34 110.76-3.44L110.76-3.44L112.27-1.66Q111.65-0.81 110.52-0.31Q109.39 0.20 108.10 0.20ZM107.72-8.22L107.72-8.22Q106.28-8.22 106.01-6.31L106.01-6.31L109.33-6.31L109.33-6.56Q109.35-7.35 108.93-7.79Q108.51-8.22 107.72-8.22Z"></path></g></g></svg>